<svg width="20" height="20" viewBox="0 0 20 20" fill="none" xmlns="http://www.w3.org/2000/svg">
<g clip-path="url(#clip0_1000_12356)">
<path d="M14.8622 10.2005C17.6996 10.2005 19.9998 7.91702 19.9998 5.10024C19.9998 2.28345 17.6996 0 14.8622 0C12.0248 0 9.72461 2.28345 9.72461 5.10024C9.72461 7.91702 12.0248 10.2005 14.8622 10.2005Z" fill="#11192D"/>
<path fill-rule="evenodd" clip-rule="evenodd" d="M16.7118 5.76332H13.0127V4.43726H16.7118V5.76332Z" fill="white"/>
<path fill-rule="evenodd" clip-rule="evenodd" d="M14.1943 6.93633V3.26416H15.5301V6.93633H14.1943Z" fill="white"/>
<path opacity="0.5" fill-rule="evenodd" clip-rule="evenodd" d="M16.3669 11.0356V16.1746C16.3669 17.2309 15.9907 18.1325 15.2383 18.8794C14.486 19.6263 13.5777 19.9998 12.5137 19.9998H3.8532C2.78917 19.9998 1.88096 19.6263 1.12858 18.8794C0.376192 18.1325 0 17.2309 0 16.1746V8.30565C0 7.24935 0.376192 6.34775 1.12858 5.60084C1.88096 4.85392 2.78917 4.48047 3.8532 4.48047L7.6697 4.48047H8.7285C8.70736 4.68662 8.69679 4.89329 8.69679 5.1005C8.69679 5.40554 8.71963 5.70889 8.76532 6.01054H7.6697L3.8532 6.01054C3.21478 6.01054 2.66986 6.23461 2.21842 6.68276C1.76699 7.13091 1.54128 7.67187 1.54128 8.30565V16.1746C1.54128 16.8084 1.76699 17.3493 2.21842 17.7975C2.66985 18.2456 3.21478 18.4697 3.8532 18.4697H12.5137C13.1521 18.4697 13.6971 18.2456 14.1485 17.7975C14.5999 17.3493 14.8256 16.8084 14.8256 16.1746V11.2207C14.8377 11.2207 14.8498 11.2208 14.8619 11.2208C15.3713 11.2208 15.8729 11.1591 16.3669 11.0356Z" fill="#7C889C"/>
<path opacity="0.5" d="M11.4523 12.2648C10.8751 12.2648 10.4553 12.4137 10.1931 12.7115C9.90005 13.0443 9.74507 13.5904 9.72817 14.3497L8.77967 15.0772C7.91862 14.8742 7.2543 14.8612 6.7867 15.0381C6.4066 15.182 6.14524 15.4869 6.00261 15.9528C5.94317 16.1469 5.80849 16.3096 5.62819 16.4052C5.44788 16.5007 5.23673 16.5213 5.04118 16.4623C4.84562 16.4033 4.68169 16.2696 4.58543 16.0906C4.48918 15.9116 4.4685 15.702 4.52793 15.5078C4.81702 14.5635 5.38693 13.9304 6.23765 13.6084C6.80316 13.3944 7.48002 13.3353 8.26823 13.4312C8.38961 12.721 8.64442 12.1455 9.03266 11.7045C9.60195 11.058 10.4085 10.7347 11.4523 10.7347C11.8779 10.7347 12.2229 11.0773 12.2229 11.4998C12.2229 11.9223 11.8779 12.2648 11.4523 12.2648Z" fill="#7C889C"/>
<path opacity="0.5" fill-rule="evenodd" clip-rule="evenodd" d="M6.56043 10.2895C6.56043 10.6497 6.43552 10.9579 6.1857 11.2141C5.93224 11.4741 5.62553 11.6041 5.26557 11.6041C4.90561 11.6041 4.5989 11.4741 4.34543 11.2141C4.09561 10.9579 3.9707 10.6497 3.9707 10.2895C3.9707 9.92992 4.09567 9.62209 4.3456 9.36604C4.59912 9.10631 4.90577 8.97644 5.26557 8.97644C5.62536 8.97644 5.93202 9.10631 6.18554 9.36604C6.43547 9.62209 6.56043 9.92992 6.56043 10.2895Z" fill="#7C889C"/>
</g>
<defs>
<clipPath id="clip0_1000_12356">
<rect width="20" height="20" fill="white"/>
</clipPath>
</defs>
</svg>
